<?xml version="1.0" encoding="UTF-8" standalone="no"?>
<svg
   version="1.1"
   width="180"
   height="180"
   viewBox="0 0 180 180"
   id="svg6"
   sodipodi:docname="favicon.svg"
   inkscape:version="1.3 (0e150ed6c4, 2023-07-21)"
   xmlns:inkscape="http://www.inkscape.org/namespaces/inkscape"
   xmlns:sodipodi="http://sodipodi.sourceforge.net/DTD/sodipodi-0.dtd"
   xmlns="http://www.w3.org/2000/svg"
   xmlns:svg="http://www.w3.org/2000/svg">
  <defs
     id="defs6" />
  <sodipodi:namedview
     id="namedview6"
     pagecolor="#ffffff"
     bordercolor="#000000"
     borderopacity="0.25"
     inkscape:showpageshadow="2"
     inkscape:pageopacity="0.0"
     inkscape:pagecheckerboard="0"
     inkscape:deskcolor="#d1d1d1"
     inkscape:document-units="px"
     inkscape:zoom="1.6634196"
     inkscape:cx="136.46587"
     inkscape:cy="179.44961"
     inkscape:window-width="1920"
     inkscape:window-height="991"
     inkscape:window-x="-9"
     inkscape:window-y="-9"
     inkscape:window-maximized="1"
     inkscape:current-layer="svg6" />
  <g
     id="Layer1000"
     transform="matrix(0.70993986,0,0,0.71090026,-2.0081358,-2.1327896)">
    <path
       d="m 121.5129,184.612 v 48.6295 c 0,12.4132 -4.4655,19.4919 -13.3934,21.2388 -8.928,1.7456 -21.899,-2.0496 -38.9059,-11.3811 C 52.2067,233.7676 39.2371,223.3291 30.3077,211.785 21.3797,200.241 16.9143,188.263 16.9143,175.8498 v -79.736 c 0,-12.4133 4.4654,-19.4934 13.3934,-21.2374 8.9294,-1.7456 21.899,2.0482 38.9059,11.3797 17.0069,9.3316 29.9779,19.7715 38.9059,31.3156 8.9279,11.5412 13.3934,23.5205 13.3934,35.9337 v 14.8968 L 88.348,150.2047 v -16.4304 c 0,-10.0753 -6.0596,-18.4382 -18.1773,-25.0873 -12.1178,-6.6491 -18.1788,-4.9353 -18.1788,5.14 v 82.8033 c 0,9.9311 6.061,18.2206 18.1788,24.8697 12.1177,6.6491 18.1773,5.0088 18.1773,-4.9224 v -28.2583 l -15.9446,-8.7478 v -21.9048 z"
       style="fill:#cc9933;fill-rule:evenodd"
       id="path1" />
    <path
       d="m 192.1545,83.8943 c 16.3263,-7.4824 28.2335,-10.1104 35.7258,-7.8853 7.4896,2.2251 11.2358,9.2099 11.2358,20.9531 v 5.3719 c 0,7.7341 -1.6823,14.8787 -5.0425,21.431 -3.3617,6.5537 -8.4989,12.6324 -15.4131,18.2347 15.7495,-2.635 23.625,4.4983 23.625,21.3999 v 12.245 c 0,11.6019 -4.0812,22.316 -12.2451,32.1451 -8.1624,9.8277 -20.1191,18.3506 -35.8686,25.5687 l -49.8412,22.8418 V 105.8116 Z m -16.134,68.623 12.3893,-5.6772 c 6.3388,-2.9051 11.0915,-6.3007 14.2609,-10.1868 3.1694,-3.889 4.7541,-8.6968 4.7541,-14.4264 v -8.3787 c 0,-5.4425 -1.2963,-8.7858 -3.889,-10.0327 -2.594,-1.2468 -6.6752,-0.5937 -12.245,1.9594 l -15.2703,6.9975 z m 0,67.6744 18.1513,-8.318 c 5.5698,-2.553 9.6991,-5.5542 12.3893,-9.0063 2.6873,-3.4536 4.0317,-7.9009 4.0317,-13.3435 v -13.1046 c 0,-6.8746 -1.5847,-10.9105 -4.7527,-12.1093 -3.1694,-1.196 -8.4028,-0.1216 -15.7015,3.2231 l -14.1181,6.4689 z"
       style="fill:#041a4a;fill-rule:evenodd"
       id="path2" />
    <path
       d="m 144.0717,6.6683 c 8.5358,4.8908 8.5358,12.8191 0,17.7099 -8.5358,4.8894 -22.3758,4.8894 -30.9115,0 -8.5373,-4.8908 -8.5373,-12.8191 0,-17.7099 8.5357,-4.8909 22.3757,-4.8909 30.9115,0 z"
       style="fill:#041a4a;fill-rule:evenodd"
       id="path3" />
    <path
       d="m 213.4289,42.8854 c 8.5372,4.8909 8.5372,12.8192 0,17.71 -8.5358,4.8908 -22.3743,4.8908 -30.9116,0 -8.5358,-4.8908 -8.5358,-12.8191 0,-17.71 8.5373,-4.8908 22.3758,-4.8908 30.9116,0 z"
       style="fill:#041a4a;fill-rule:evenodd"
       id="path4" />
    <path
       d="m 75.2235,42.8858 c 8.5372,4.8908 8.5372,12.8191 0,17.7099 -8.5358,4.8909 -22.3758,4.8909 -30.9116,0 -8.5358,-4.8908 -8.5358,-12.8191 0,-17.7099 8.5358,-4.8909 22.3758,-4.8909 30.9116,0 z"
       style="fill:#041a4a;fill-rule:evenodd"
       id="path5" />
    <path
       d="m 144.0723,73.519 c 8.5358,4.8893 8.5358,12.8191 0,17.7085 -8.5372,4.8908 -22.3757,4.8908 -30.9115,0 -8.5373,-4.8894 -8.5373,-12.8192 0,-17.7085 8.5358,-4.8909 22.3743,-4.8909 30.9115,0 z"
       style="fill:#041a4a;fill-rule:evenodd"
       id="path6" />
  </g>
</svg>
